<svg width="120" height="120" viewBox="0 0 120 120" fill="none" xmlns="http://www.w3.org/2000/svg">
<path d="M106.372 48.1969C104.605 46.35 102.777 44.4469 102.088 42.7734C101.45 41.2406 101.412 38.7 101.375 36.2391C101.305 31.6641 101.23 26.4797 97.625 22.875C94.0203 19.2703 88.8359 19.1953 84.2609 19.125C81.8 19.0875 79.2594 19.05 77.7266 18.4125C76.0578 17.7234 74.15 15.8953 72.3031 14.1281C69.0687 11.0203 65.3937 7.5 60.5 7.5C55.6063 7.5 51.9359 11.0203 48.6969 14.1281C46.85 15.8953 44.9469 17.7234 43.2734 18.4125C41.75 19.05 39.2 19.0875 36.7391 19.125C32.1641 19.1953 26.9797 19.2703 23.375 22.875C19.7703 26.4797 19.7188 31.6641 19.625 36.2391C19.5875 38.7 19.55 41.2406 18.9125 42.7734C18.2234 44.4422 16.3953 46.35 14.6281 48.1969C11.5203 51.4313 8 55.1063 8 60C8 64.8937 11.5203 68.5641 14.6281 71.8031C16.3953 73.65 18.2234 75.5531 18.9125 77.2266C19.55 78.7594 19.5875 81.3 19.625 83.7609C19.6953 88.3359 19.7703 93.5203 23.375 97.125C26.9797 100.73 32.1641 100.805 36.7391 100.875C39.2 100.912 41.7406 100.95 43.2734 101.588C44.9422 102.277 46.85 104.105 48.6969 105.872C51.9313 108.98 55.6063 112.5 60.5 112.5C65.3937 112.5 69.0641 108.98 72.3031 105.872C74.15 104.105 76.0531 102.277 77.7266 101.588C79.2594 100.95 81.8 100.912 84.2609 100.875C88.8359 100.805 94.0203 100.73 97.625 97.125C101.23 93.5203 101.305 88.3359 101.375 83.7609C101.412 81.3 101.45 78.7594 102.088 77.2266C102.777 75.5578 104.605 73.65 106.372 71.8031C109.48 68.5687 113 64.8937 113 60C113 55.1063 109.48 51.4359 106.372 48.1969ZM81.9031 51.4031L55.6531 77.6531C55.3049 78.0018 54.8913 78.2784 54.436 78.4671C53.9808 78.6558 53.4928 78.7529 53 78.7529C52.5072 78.7529 52.0192 78.6558 51.564 78.4671C51.1087 78.2784 50.6951 78.0018 50.3469 77.6531L39.0969 66.4031C38.3932 65.6995 37.9979 64.7451 37.9979 63.75C37.9979 62.7549 38.3932 61.8005 39.0969 61.0969C39.8005 60.3932 40.7549 59.9979 41.75 59.9979C42.7451 59.9979 43.6995 60.3932 44.4031 61.0969L53 69.6984L76.5969 46.0969C76.9453 45.7485 77.3589 45.4721 77.8141 45.2835C78.2694 45.095 78.7573 44.9979 79.25 44.9979C79.7427 44.9979 80.2306 45.095 80.6859 45.2835C81.1411 45.4721 81.5547 45.7485 81.9031 46.0969C82.2515 46.4453 82.5279 46.8589 82.7165 47.3141C82.905 47.7694 83.0021 48.2573 83.0021 48.75C83.0021 49.2427 82.905 49.7306 82.7165 50.1859C82.5279 50.6411 82.2515 51.0547 81.9031 51.4031Z" fill="url(#paint0_linear_1992_584)"/>
<defs>
<linearGradient id="paint0_linear_1992_584" x1="60.5" y1="7.5" x2="60.5" y2="112.5" gradientUnits="userSpaceOnUse">
<stop stop-color="#635EF7"/>
<stop offset="1" stop-color="#342FDA"/>
</linearGradient>
</defs>
</svg>
