<svg width="52" height="52" viewBox="0 0 52 52" fill="none" xmlns="http://www.w3.org/2000/svg">
<circle cx="26" cy="26" r="26" fill="#827EF9"/>
<path d="M25.9999 22.2085C24.9943 22.2085 24.0299 22.608 23.3188 23.3191C22.6077 24.0301 22.2083 24.9946 22.2083 26.0002C22.2083 27.0058 22.6077 27.9702 23.3188 28.6813C24.0299 29.3924 24.9943 29.7918 25.9999 29.7918C27.0055 29.7918 27.97 29.3924 28.681 28.6813C29.3921 27.9702 29.7916 27.0058 29.7916 26.0002C29.7916 24.9946 29.3921 24.0301 28.681 23.3191C27.97 22.608 27.0055 22.2085 25.9999 22.2085Z" fill="white"/>
<path fill-rule="evenodd" clip-rule="evenodd" d="M19.8984 15.5954C23.9538 15.1459 28.0464 15.1459 32.1018 15.5954C34.3173 15.8428 36.1034 17.5869 36.3636 19.8106C36.8445 23.9227 36.8445 28.0768 36.3636 32.1889C36.1034 34.4126 34.3173 36.1568 32.103 36.4053C28.0472 36.8549 23.9542 36.8549 19.8984 36.4053C17.683 36.1568 15.8968 34.4126 15.6366 32.1901C15.1556 28.0776 15.1556 23.9231 15.6366 19.8106C15.8968 17.5869 17.683 15.8428 19.8984 15.5954ZM31.8334 18.9998C31.524 18.9998 31.2273 19.1227 31.0085 19.3415C30.7897 19.5603 30.6668 19.857 30.6668 20.1664C30.6668 20.4759 30.7897 20.7726 31.0085 20.9914C31.2273 21.2102 31.524 21.3331 31.8334 21.3331C32.1429 21.3331 32.4396 21.2102 32.6584 20.9914C32.8772 20.7726 33.0001 20.4759 33.0001 20.1664C33.0001 19.857 32.8772 19.5603 32.6584 19.3415C32.4396 19.1227 32.1429 18.9998 31.8334 18.9998ZM20.4584 25.9998C20.4584 24.53 21.0423 23.1205 22.0816 22.0812C23.1208 21.042 24.5304 20.4581 26.0001 20.4581C27.4699 20.4581 28.8794 21.042 29.9187 22.0812C30.9579 23.1205 31.5418 24.53 31.5418 25.9998C31.5418 27.4695 30.9579 28.8791 29.9187 29.9183C28.8794 30.9576 27.4699 31.5414 26.0001 31.5414C24.5304 31.5414 23.1208 30.9576 22.0816 29.9183C21.0423 28.8791 20.4584 27.4695 20.4584 25.9998Z" fill="white"/>
</svg>
