<svg width="177" height="42" viewBox="0 0 177 42" fill="none" xmlns="http://www.w3.org/2000/svg">
<rect y="21" width="29.6985" height="29.6985" transform="rotate(-45 0 21)" fill="#635EF7"/>
<path d="M6.19678 20.4168L21.183 23.9327L35.3045 21.0844L21.0844 35.3045L6.19678 20.4168Z" fill="white"/>
<path d="M55.886 28.5V11.71H62.073L68.398 25.441H69.18L68.72 25.855V11.71H72.262V28.5H66.029L59.704 14.769H58.922L59.382 14.355V28.5H55.886ZM84.0835 28.937C82.5655 28.937 81.2391 28.6763 80.1045 28.155C78.9851 27.6183 78.0575 26.9207 77.3215 26.062C76.5855 25.188 76.0335 24.245 75.6655 23.233C75.3128 22.221 75.1365 21.2473 75.1365 20.312V19.806C75.1365 18.7633 75.3205 17.736 75.6885 16.724C76.0718 15.6967 76.6391 14.769 77.3905 13.941C78.1418 13.113 79.0771 12.4537 80.1965 11.963C81.3158 11.457 82.6115 11.204 84.0835 11.204C85.5555 11.204 86.8511 11.457 87.9705 11.963C89.0898 12.4537 90.0251 13.113 90.7765 13.941C91.5278 14.769 92.0951 15.6967 92.4785 16.724C92.8618 17.736 93.0535 18.7633 93.0535 19.806V20.312C93.0535 21.2473 92.8695 22.221 92.5015 23.233C92.1335 24.245 91.5815 25.188 90.8455 26.062C90.1095 26.9207 89.1741 27.6183 88.0395 28.155C86.9201 28.6763 85.6015 28.937 84.0835 28.937ZM84.0835 25.418C84.8808 25.418 85.5938 25.28 86.2225 25.004C86.8665 24.728 87.4108 24.3447 87.8555 23.854C88.3155 23.3633 88.6605 22.796 88.8905 22.152C89.1205 21.508 89.2355 20.818 89.2355 20.082C89.2355 19.3 89.1128 18.587 88.8675 17.943C88.6375 17.2837 88.2925 16.7163 87.8325 16.241C87.3878 15.7503 86.8511 15.3747 86.2225 15.114C85.5938 14.8533 84.8808 14.723 84.0835 14.723C83.2861 14.723 82.5731 14.8533 81.9445 15.114C81.3158 15.3747 80.7715 15.7503 80.3115 16.241C79.8668 16.7163 79.5295 17.2837 79.2995 17.943C79.0695 18.587 78.9545 19.3 78.9545 20.082C78.9545 20.818 79.0695 21.508 79.2995 22.152C79.5295 22.796 79.8668 23.3633 80.3115 23.854C80.7715 24.3447 81.3158 24.728 81.9445 25.004C82.5731 25.28 83.2861 25.418 84.0835 25.418ZM99.3224 28.5L94.2164 11.71H98.1034L102.151 25.878L101.277 25.441H103.623L102.703 25.878L106.452 11.71H110.224L105.463 28.5H99.3224ZM109.912 28.5L115.455 11.71H121.55L127.3 28.5H123.39L118.744 14.309L119.94 14.792H116.973L118.215 14.309L113.684 28.5H109.912ZM114.121 24.337L115.271 21.209H121.849L123.022 24.337H114.121Z" fill="#121212"/>
<path d="M132.71 28.615V25.671H136.643C137.349 25.671 137.878 25.487 138.23 25.119C138.583 24.751 138.759 24.2297 138.759 23.555C138.759 22.8803 138.583 22.3667 138.23 22.014C137.878 21.646 137.349 21.462 136.643 21.462H132.71V19.185H136.459C137.625 19.185 138.66 19.3307 139.564 19.622C140.469 19.898 141.182 20.3503 141.703 20.979C142.225 21.6077 142.485 22.4587 142.485 23.532V23.854C142.485 24.8507 142.255 25.7093 141.795 26.43C141.335 27.1353 140.661 27.6797 139.771 28.063C138.882 28.431 137.778 28.615 136.459 28.615H132.71ZM129.49 28.615V11.572H133.17V28.615H129.49ZM132.71 20.864V18.61H136.022C136.743 18.61 137.264 18.426 137.586 18.058C137.908 17.69 138.069 17.1993 138.069 16.586C138.069 15.942 137.908 15.436 137.586 15.068C137.264 14.7 136.743 14.516 136.022 14.516H132.71V11.572H135.792C137.724 11.572 139.204 11.9783 140.231 12.791C141.274 13.6037 141.795 14.7613 141.795 16.264V16.609C141.795 17.6517 141.527 18.4873 140.99 19.116C140.469 19.7447 139.756 20.197 138.851 20.473C137.962 20.7337 136.942 20.864 135.792 20.864H132.71ZM152.363 28.937C150.784 28.937 149.442 28.6457 148.338 28.063C147.25 27.465 146.422 26.6217 145.854 25.533C145.287 24.4443 145.003 23.1563 145.003 21.669V11.71H148.775V21.807C148.775 22.543 148.913 23.187 149.189 23.739C149.481 24.2757 149.887 24.6897 150.408 24.981C150.945 25.2723 151.597 25.418 152.363 25.418C153.145 25.418 153.797 25.2723 154.318 24.981C154.855 24.6897 155.261 24.2757 155.537 23.739C155.813 23.2023 155.951 22.5583 155.951 21.807V11.71H159.723V21.669C159.723 23.1563 159.44 24.4443 158.872 25.533C158.305 26.6217 157.477 27.465 156.388 28.063C155.3 28.6457 153.958 28.937 152.363 28.937ZM166.356 22.129L161.457 11.71H165.321L168.84 19.507L168.173 19.3H170.105L169.392 19.507L172.566 11.71H176.223L171.715 22.129H166.356ZM167.184 28.5V21.6H170.887V28.5H167.184Z" fill="#635EF7"/>
</svg>
