<svg width="52" height="52" viewBox="0 0 52 52" fill="none" xmlns="http://www.w3.org/2000/svg">
<circle cx="26" cy="26" r="26" fill="#827EF9"/>
<path d="M37.914 18.5986C37.0237 18.9924 36.0796 19.2512 35.1129 19.3662C36.1314 18.7562 36.8935 17.7968 37.2572 16.6666C36.3005 17.2359 35.2517 17.6349 34.1597 17.8507C33.4254 17.0651 32.4521 16.544 31.3911 16.3686C30.3302 16.1932 29.241 16.3732 28.2928 16.8806C27.3447 17.3881 26.5908 18.1945 26.1483 19.1747C25.7058 20.1548 25.5996 21.2537 25.846 22.3004C23.9058 22.2033 22.0077 21.6993 20.2749 20.8209C18.5421 19.9426 17.0135 18.7096 15.7882 17.2021C15.3545 17.9469 15.1266 18.7937 15.1279 19.6556C15.1279 21.3472 15.99 22.8417 17.2979 23.7167C16.5232 23.6923 15.7656 23.4831 15.0882 23.1066V23.1661C15.0882 24.2929 15.4779 25.3851 16.1913 26.2574C16.9047 27.1296 17.8979 27.7283 19.0024 27.9517C18.2833 28.1468 17.5292 28.1756 16.7974 28.0357C17.1088 29.0057 17.7158 29.854 18.5334 30.4617C19.3509 31.0695 20.3381 31.4063 21.3567 31.4249C20.3444 32.2199 19.1854 32.8076 17.9458 33.1543C16.7063 33.5011 15.4105 33.6 14.1327 33.4456C16.363 34.8799 18.9593 35.6413 21.611 35.6389C30.5874 35.6389 35.4944 28.2037 35.4944 21.7556C35.4944 21.5456 35.4897 21.3332 35.4804 21.1244C36.4352 20.4342 37.2593 19.5781 37.914 18.5986Z" fill="white"/>
</svg>
