<svg width="52" height="52" viewBox="0 0 52 52" fill="none" xmlns="http://www.w3.org/2000/svg">
<circle cx="26" cy="26" r="26" fill="#827EF9"/>
<g clip-path="url(#clip0_1042_4225)">
<path d="M29.7005 31.4375V34.7344C29.7005 35.4323 29.4635 35.7812 28.9896 35.7812C28.7101 35.7812 28.4366 35.6667 28.1693 35.4375V30.7344C28.4366 30.5052 28.7101 30.3906 28.9896 30.3906C29.4635 30.3906 29.7005 30.7396 29.7005 31.4375ZM35.862 31.4531V32.1719H34.2214V31.4531C34.2214 30.7448 34.4948 30.3906 35.0417 30.3906C35.5885 30.3906 35.862 30.7448 35.862 31.4531ZM18.2526 28.0469H20.2031V26.5781H14.5156V28.0469H16.4297V36.9375H18.2526V28.0469ZM23.5026 36.9375H25.125V29.2188H23.5026V35.125C23.138 35.5625 22.7917 35.7812 22.4635 35.7812C22.2448 35.7812 22.1172 35.6719 22.0807 35.4531C22.0686 35.4219 22.0625 35.2396 22.0625 34.9062V29.2188H20.4401V35.3281C20.4401 35.8385 20.4887 36.2188 20.5859 36.4688C20.7318 36.8542 21.0842 37.0469 21.6432 37.0469C22.2266 37.0469 22.8464 36.7292 23.5026 36.0938V36.9375ZM31.3229 34.625V31.5469C31.3229 30.7865 31.2682 30.2708 31.1589 30C30.9523 29.4167 30.5208 29.125 29.8646 29.125C29.2569 29.125 28.6918 29.4062 28.1693 29.9688V26.5781H26.5469V36.9375H28.1693V36.1875C28.7161 36.7604 29.2812 37.0469 29.8646 37.0469C30.5208 37.0469 30.9523 36.7604 31.1589 36.1875C31.2682 35.9062 31.3229 35.3854 31.3229 34.625ZM37.4844 34.4688V34.2656H35.8255C35.8255 34.7969 35.8134 35.1146 35.7891 35.2188C35.704 35.5938 35.4609 35.7812 35.0599 35.7812C34.5009 35.7812 34.2214 35.4219 34.2214 34.7031V33.3438H37.4844V31.7344C37.4844 30.9115 37.3203 30.3073 36.9922 29.9219C36.5182 29.3906 35.8741 29.125 35.0599 29.125C34.2335 29.125 33.5833 29.3906 33.1094 29.9219C32.7691 30.3073 32.599 30.9115 32.599 31.7344V34.4375C32.599 35.2604 32.7752 35.8646 33.1276 36.25C33.6016 36.7812 34.2578 37.0469 35.0964 37.0469C35.9714 37.0469 36.6276 36.7708 37.0651 36.2188C37.2839 35.9375 37.4115 35.6562 37.4479 35.375C37.4722 35.2812 37.4844 34.9792 37.4844 34.4688ZM26.401 20.2031V16.9219C26.401 16.2031 26.1398 15.8438 25.6172 15.8438C25.0946 15.8438 24.8333 16.2031 24.8333 16.9219V20.2031C24.8333 20.9323 25.0946 21.2969 25.6172 21.2969C26.1398 21.2969 26.401 20.9323 26.401 20.2031ZM39.5078 31.9375C39.5078 34.375 39.3498 36.1979 39.0339 37.4062C38.8637 38.0208 38.5113 38.5365 37.9766 38.9531C37.4418 39.3698 36.822 39.6094 36.1172 39.6719C33.8811 39.8906 30.5087 40 26 40C21.4913 40 18.1189 39.8906 15.8828 39.6719C15.178 39.6094 14.5551 39.3698 14.0143 38.9531C13.4735 38.5365 13.1241 38.0208 12.9661 37.4062C12.6502 36.2396 12.4922 34.4167 12.4922 31.9375C12.4922 29.5 12.6502 27.6771 12.9661 26.4688C13.1363 25.8542 13.4887 25.3385 14.0234 24.9219C14.5582 24.5052 15.184 24.2604 15.901 24.1875C18.125 23.9792 21.4913 23.875 26 23.875C30.5087 23.875 33.8811 23.9792 36.1172 24.1875C36.822 24.2604 37.4449 24.5052 37.9857 24.9219C38.5265 25.3385 38.8759 25.8542 39.0339 26.4688C39.3498 27.6354 39.5078 29.4583 39.5078 31.9375ZM21.3151 12H23.1745L20.9688 18.2344V22.4688H19.1458V18.2344C18.9757 17.4635 18.605 16.3594 18.0339 14.9219C17.5842 13.849 17.1892 12.875 16.849 12H18.7812L20.0755 16.1094L21.3151 12ZM28.0599 17.2031V19.9375C28.0599 20.7812 27.8898 21.3958 27.5495 21.7812C27.0877 22.3125 26.4436 22.5781 25.6172 22.5781C24.803 22.5781 24.1649 22.3125 23.7031 21.7812C23.3628 21.3854 23.1927 20.7708 23.1927 19.9375V17.2031C23.1927 16.3698 23.3628 15.7604 23.7031 15.375C24.1649 14.8438 24.803 14.5781 25.6172 14.5781C26.4436 14.5781 27.0877 14.8438 27.5495 15.375C27.8898 15.7604 28.0599 16.3698 28.0599 17.2031ZM34.1667 14.6719V22.4688H32.5078V21.6094C31.8637 22.2552 31.2378 22.5781 30.6302 22.5781C30.0712 22.5781 29.7127 22.3854 29.5547 22C29.4575 21.75 29.4089 21.3594 29.4089 20.8281V14.6719H31.0677V20.4062C31.0677 20.75 31.0738 20.9323 31.0859 20.9531C31.1224 21.1823 31.25 21.2969 31.4688 21.2969C31.7969 21.2969 32.1432 21.0729 32.5078 20.625V14.6719H34.1667Z" fill="white"/>
</g>
<defs>
<clipPath id="clip0_1042_4225">
<rect width="28" height="28" fill="white" transform="translate(12 12)"/>
</clipPath>
</defs>
</svg>
